<svg width="600" height="107" viewBox="0 0 600 107" fill="none" xmlns="http://www.w3.org/2000/svg">
<g filter="url(#filter0_d_20_2)">
<path fill-rule="evenodd" clip-rule="evenodd" d="M517.938 21.1818H545.906L533.676 96H555.618L567.849 21.1818H595.772L598.829 2.90909H520.996L517.938 21.1818ZM568.688 22.1818H596.608L600 1.90909H520.16L516.767 22.1818H544.74L532.509 97H556.458L568.688 22.1818Z" fill="black"/>
</g>
<g filter="url(#filter1_d_20_2)">
<path fill-rule="evenodd" clip-rule="evenodd" d="M510.035 2.90909H487.778L472.49 96H494.747L510.035 2.90909ZM511.202 1.90909L495.586 97H471.323L486.939 1.90909H511.202Z" fill="black"/>
</g>
<g filter="url(#filter2_d_20_2)">
<path fill-rule="evenodd" clip-rule="evenodd" d="M367.138 96H431.347L434.405 77.7273H392.453L395.51 58.5909H434.18L437.238 40.2727H398.568L401.625 21.1818H443.578L446.635 2.90909H382.426L367.138 96ZM402.467 22.1818H444.413L447.806 1.90909H381.587L365.971 97H432.183L435.575 76.7273H393.615L396.353 59.5909H435.016L438.408 39.2727H399.73L402.467 22.1818Z" fill="black"/>
</g>
<g filter="url(#filter3_d_20_2)">
<path fill-rule="evenodd" clip-rule="evenodd" d="M278.231 96H300.489L304.625 70.9091L315.597 59.4091L332.324 96H358.943L334.302 44.4545L373.646 2.90909H347.432L310.561 42.2727H309.347L315.777 2.90909H293.519L278.231 96ZM310.592 40.7845L316.943 1.90909H292.681L277.064 97H301.327L305.551 71.3798L315.305 61.1552L331.691 97H360.519L335.492 44.6446L375.963 1.90909H347.006L310.592 40.7845Z" fill="black"/>
</g>
<g filter="url(#filter4_d_20_2)">
<path fill-rule="evenodd" clip-rule="evenodd" d="M200.465 96L209.753 76.4545H241.555L244.395 96H268.316L252.534 2.90909H222.902L176.543 96H200.465ZM217.876 59.3636H239.072L234.278 26.3636H233.559L217.876 59.3636ZM233.601 28.5841L219.448 58.3636H237.927L233.601 28.5841ZM240.701 77.4545L243.541 97H269.49L253.368 1.90909H222.292L174.938 97H201.087L210.376 77.4545H240.701Z" fill="black"/>
</g>
<g filter="url(#filter5_d_20_2)">
<path fill-rule="evenodd" clip-rule="evenodd" d="M85.8271 96H108.085L114.2 58.5909H150.486L144.371 96H166.584L181.872 2.90909H159.659L153.544 40.2727H117.257L123.373 2.90909H101.115L85.8271 96ZM118.424 39.2727L124.539 1.90909H100.277L84.6601 97H108.924L115.039 59.5909H149.32L143.205 97H167.422L183.039 1.90909H158.82L152.705 39.2727H118.424Z" fill="black"/>
</g>
<g filter="url(#filter6_d_20_2)">
<path fill-rule="evenodd" clip-rule="evenodd" d="M61.5636 32L61.6385 30.9294C61.8624 27.7324 61.0242 25.4096 59.2609 23.7844L59.2555 23.7794C57.5117 22.1481 54.6323 21.2273 50.3949 21.2273C47.598 21.2273 45.262 21.5961 43.362 22.3022L43.35 22.3067C41.4343 22.9902 39.9849 23.9372 38.9498 25.1178L38.9423 25.1264C37.8983 26.29 37.2479 27.6322 36.9805 29.1728L36.9785 29.1845L36.9762 29.1961C36.7358 30.4112 36.8152 31.4202 37.1495 32.265C37.4922 33.1312 38.1027 33.9317 39.0333 34.6587C40.02 35.4058 41.2641 36.0748 42.7831 36.6544C44.3524 37.2418 46.1213 37.7597 48.093 38.206L48.106 38.2089L55.649 40.0246C55.6509 40.025 55.6528 40.0255 55.6547 40.0259C60.0892 41.0395 63.9598 42.3968 67.2544 44.1081C70.5835 45.7915 73.3141 47.8498 75.4202 50.2959C77.5323 52.7187 78.9844 55.5124 79.7717 58.6642C80.5613 61.8251 80.6152 65.3318 79.968 69.1655C78.9808 75.2131 76.6144 80.4317 72.8595 84.7923C69.1423 89.1442 64.2936 92.4593 58.3465 94.7525C52.425 97.0474 45.5713 98.1818 37.8048 98.1818C30.0365 98.1818 23.3757 97.0014 17.8542 94.6004L17.8481 94.5978C12.3259 92.1515 8.27561 88.439 5.76285 83.454C3.24104 78.451 2.60385 72.2213 3.73318 64.847L3.86289 64H27.0843L26.9622 65.1104C26.648 67.9693 27.0159 70.2468 27.9689 72.016C28.9616 73.8035 30.4953 75.1784 32.6287 76.1307C34.7798 77.0908 37.4239 77.5909 40.5926 77.5909C43.5039 77.5909 46.009 77.1933 48.1264 76.4227L48.1303 76.4213C50.2929 75.6447 51.9612 74.5854 53.1805 73.2706L53.1879 73.2626C54.4365 71.9455 55.1777 70.4617 55.4436 68.7953L55.4457 68.7817C55.7071 67.2755 55.4533 66.0498 54.7518 65.0227L54.7472 65.016L54.7428 65.0092C54.0435 63.9489 52.7851 62.9432 50.8389 62.0463L50.8338 62.0439C48.9108 61.1444 46.3453 60.3147 43.1143 59.5656L43.101 59.5625L33.8833 57.2897C26.1545 55.3826 20.1917 52.3126 16.0938 48.0119L16.0912 48.0092C11.9257 43.604 10.5182 37.6674 11.6932 30.3845L11.6939 30.3802C12.6831 24.4114 15.1306 19.1783 19.0317 14.7025L19.0343 14.6996C22.9511 10.2413 27.8916 6.79319 33.8333 4.34706C39.81 1.86856 46.3689 0.636353 53.4975 0.636353C60.7375 0.636353 66.8933 1.88094 71.9225 4.42208C76.978 6.93111 80.67 10.5029 82.9357 15.1454C85.2339 19.7626 85.8701 25.118 84.9154 31.1578L84.7823 32H61.5636ZM82.0501 15.5909C79.8918 11.1667 76.3695 7.74241 71.4833 5.31817C66.6272 2.86362 60.6319 1.63635 53.4975 1.63635C46.483 1.63635 40.053 2.84847 34.2076 5.27272C28.3922 7.66666 23.5809 11.0303 19.7739 15.3636C15.9969 19.697 13.6288 24.7576 12.6695 30.5454C11.5304 37.606 12.9093 43.197 16.8063 47.3182C20.7332 51.4394 26.5037 54.4394 34.1177 56.3182L43.3354 58.5909C46.6029 59.3485 49.2408 60.197 51.2492 61.1364C53.2876 62.0758 54.7265 63.1818 55.5658 64.4545C56.4352 65.7273 56.7199 67.2273 56.4202 68.9545C56.1204 70.8333 55.2811 72.5 53.9021 73.9545C52.5532 75.4091 50.7396 76.5454 48.4614 77.3636C46.2132 78.1818 43.5902 78.5909 40.5926 78.5909C37.3252 78.5909 34.5373 78.0758 32.2292 77.0454C29.921 76.0151 28.2123 74.5 27.1032 72.5C26.1462 70.7265 25.7432 68.5598 25.8941 66C25.9134 65.6731 25.9417 65.3397 25.9791 65H4.71076C3.60163 72.2424 4.24612 78.2424 6.64424 83C9.04236 87.7576 12.9093 91.3182 18.2451 93.6818C23.6109 96.0151 30.1308 97.1818 37.8048 97.1818C45.4788 97.1818 52.2085 96.0606 57.9939 93.8182C63.8094 91.5758 68.5157 88.3485 72.1129 84.1364C75.74 79.9242 78.0332 74.8788 78.9925 69C79.622 65.2727 79.562 61.9091 78.8126 58.9091C78.0632 55.9091 76.6843 53.2576 74.6758 50.9545C72.6674 48.6212 70.0445 46.6364 66.807 45C63.5995 43.3333 59.8075 42 55.4309 41L47.8769 39.1818C45.8685 38.7273 44.0549 38.197 42.4361 37.5909C40.8474 36.9848 39.5134 36.2727 38.4343 35.4545C37.3851 34.6364 36.6507 33.697 36.231 32.6364C35.8113 31.5757 35.7364 30.3636 36.0062 29C36.306 27.2727 37.0404 25.7576 38.2095 24.4545C39.3785 23.1212 40.9823 22.0909 43.0207 21.3636C45.0591 20.6061 47.5172 20.2273 50.3949 20.2273C54.7415 20.2273 57.919 21.1667 59.9274 23.0454C61.7628 24.7371 62.6747 27.0553 62.6631 30C62.6618 30.3257 62.6492 30.659 62.6253 31H83.9386C84.8678 25.1212 84.2383 19.9848 82.0501 15.5909Z" fill="black"/>
</g>
<defs>
<filter id="filter0_d_20_2" x="512.767" y="1.90909" width="91.2327" height="103.091" filterUnits="userSpaceOnUse" color-interpolation-filters="sRGB">
<feFlood flood-opacity="0" result="BackgroundImageFix"/>
<feColorMatrix in="SourceAlpha" type="matrix" values="0 0 0 0 0 0 0 0 0 0 0 0 0 0 0 0 0 0 127 0" result="hardAlpha"/>
<feOffset dy="4"/>
<feGaussianBlur stdDeviation="2"/>
<feComposite in2="hardAlpha" operator="out"/>
<feColorMatrix type="matrix" values="0 0 0 0 0 0 0 0 0 0 0 0 0 0 0 0 0 0 0.25 0"/>
<feBlend mode="normal" in2="BackgroundImageFix" result="effect1_dropShadow_20_2"/>
<feBlend mode="normal" in="SourceGraphic" in2="effect1_dropShadow_20_2" result="shape"/>
</filter>
<filter id="filter1_d_20_2" x="467.323" y="1.90909" width="47.8795" height="103.091" filterUnits="userSpaceOnUse" color-interpolation-filters="sRGB">
<feFlood flood-opacity="0" result="BackgroundImageFix"/>
<feColorMatrix in="SourceAlpha" type="matrix" values="0 0 0 0 0 0 0 0 0 0 0 0 0 0 0 0 0 0 127 0" result="hardAlpha"/>
<feOffset dy="4"/>
<feGaussianBlur stdDeviation="2"/>
<feComposite in2="hardAlpha" operator="out"/>
<feColorMatrix type="matrix" values="0 0 0 0 0 0 0 0 0 0 0 0 0 0 0 0 0 0 0.25 0"/>
<feBlend mode="normal" in2="BackgroundImageFix" result="effect1_dropShadow_20_2"/>
<feBlend mode="normal" in="SourceGraphic" in2="effect1_dropShadow_20_2" result="shape"/>
</filter>
<filter id="filter2_d_20_2" x="361.971" y="1.90909" width="89.8352" height="103.091" filterUnits="userSpaceOnUse" color-interpolation-filters="sRGB">
<feFlood flood-opacity="0" result="BackgroundImageFix"/>
<feColorMatrix in="SourceAlpha" type="matrix" values="0 0 0 0 0 0 0 0 0 0 0 0 0 0 0 0 0 0 127 0" result="hardAlpha"/>
<feOffset dy="4"/>
<feGaussianBlur stdDeviation="2"/>
<feComposite in2="hardAlpha" operator="out"/>
<feColorMatrix type="matrix" values="0 0 0 0 0 0 0 0 0 0 0 0 0 0 0 0 0 0 0.25 0"/>
<feBlend mode="normal" in2="BackgroundImageFix" result="effect1_dropShadow_20_2"/>
<feBlend mode="normal" in="SourceGraphic" in2="effect1_dropShadow_20_2" result="shape"/>
</filter>
<filter id="filter3_d_20_2" x="273.064" y="1.90909" width="106.899" height="103.091" filterUnits="userSpaceOnUse" color-interpolation-filters="sRGB">
<feFlood flood-opacity="0" result="BackgroundImageFix"/>
<feColorMatrix in="SourceAlpha" type="matrix" values="0 0 0 0 0 0 0 0 0 0 0 0 0 0 0 0 0 0 127 0" result="hardAlpha"/>
<feOffset dy="4"/>
<feGaussianBlur stdDeviation="2"/>
<feComposite in2="hardAlpha" operator="out"/>
<feColorMatrix type="matrix" values="0 0 0 0 0 0 0 0 0 0 0 0 0 0 0 0 0 0 0.25 0"/>
<feBlend mode="normal" in2="BackgroundImageFix" result="effect1_dropShadow_20_2"/>
<feBlend mode="normal" in="SourceGraphic" in2="effect1_dropShadow_20_2" result="shape"/>
</filter>
<filter id="filter4_d_20_2" x="170.938" y="1.90909" width="102.552" height="103.091" filterUnits="userSpaceOnUse" color-interpolation-filters="sRGB">
<feFlood flood-opacity="0" result="BackgroundImageFix"/>
<feColorMatrix in="SourceAlpha" type="matrix" values="0 0 0 0 0 0 0 0 0 0 0 0 0 0 0 0 0 0 127 0" result="hardAlpha"/>
<feOffset dy="4"/>
<feGaussianBlur stdDeviation="2"/>
<feComposite in2="hardAlpha" operator="out"/>
<feColorMatrix type="matrix" values="0 0 0 0 0 0 0 0 0 0 0 0 0 0 0 0 0 0 0.25 0"/>
<feBlend mode="normal" in2="BackgroundImageFix" result="effect1_dropShadow_20_2"/>
<feBlend mode="normal" in="SourceGraphic" in2="effect1_dropShadow_20_2" result="shape"/>
</filter>
<filter id="filter5_d_20_2" x="80.6601" y="1.90909" width="106.379" height="103.091" filterUnits="userSpaceOnUse" color-interpolation-filters="sRGB">
<feFlood flood-opacity="0" result="BackgroundImageFix"/>
<feColorMatrix in="SourceAlpha" type="matrix" values="0 0 0 0 0 0 0 0 0 0 0 0 0 0 0 0 0 0 127 0" result="hardAlpha"/>
<feOffset dy="4"/>
<feGaussianBlur stdDeviation="2"/>
<feComposite in2="hardAlpha" operator="out"/>
<feColorMatrix type="matrix" values="0 0 0 0 0 0 0 0 0 0 0 0 0 0 0 0 0 0 0.25 0"/>
<feBlend mode="normal" in2="BackgroundImageFix" result="effect1_dropShadow_20_2"/>
<feBlend mode="normal" in="SourceGraphic" in2="effect1_dropShadow_20_2" result="shape"/>
</filter>
<filter id="filter6_d_20_2" x="-0.804504" y="0.636353" width="90.1477" height="105.545" filterUnits="userSpaceOnUse" color-interpolation-filters="sRGB">
<feFlood flood-opacity="0" result="BackgroundImageFix"/>
<feColorMatrix in="SourceAlpha" type="matrix" values="0 0 0 0 0 0 0 0 0 0 0 0 0 0 0 0 0 0 127 0" result="hardAlpha"/>
<feOffset dy="4"/>
<feGaussianBlur stdDeviation="2"/>
<feComposite in2="hardAlpha" operator="out"/>
<feColorMatrix type="matrix" values="0 0 0 0 0 0 0 0 0 0 0 0 0 0 0 0 0 0 0.25 0"/>
<feBlend mode="normal" in2="BackgroundImageFix" result="effect1_dropShadow_20_2"/>
<feBlend mode="normal" in="SourceGraphic" in2="effect1_dropShadow_20_2" result="shape"/>
</filter>
</defs>
</svg>
