<svg id="ea3beDgc5ku1" xmlns="http://www.w3.org/2000/svg" xmlns:xlink="http://www.w3.org/1999/xlink" viewBox="0 0 300 300" shape-rendering="geometricPrecision" text-rendering="geometricPrecision"><path d="M26.13734,107.63949c57.80097,0,117.40581-5.33619,175.1073-9.27039c12.90826-.88011,25.6951-1.03004,38.62661-1.03004.47241,0,9.78541.22448,9.78541-1.54506c0-.92449-1.65991-.8993-2.57511-1.03004-10.8507-1.5501-23.2736.54806-33.99142,1.54506-38.46533,3.57817-76.80494,9.74906-115.36481,12.87554-15.08262,1.22292-30.27625.90273-45.32189,2.06009-4.28909.32993-8.59072.15795-12.87554.51502-3.07945.25662-12.31847-.50801-9.27039,0c21.45678,3.57613,45.32018.51502,66.95279.51502c49.45301,0,98.99996-1.03004,148.32618-1.03004" fill="none" stroke="#3f5787" stroke-width="0.6"/></svg>
